<svg xmlns="http://www.w3.org/2000/svg" viewBox="0 0 397.43 76.95"><defs><style>.cls-1{fill:#fff;}</style></defs><title>logo_white</title><g id="レイヤー_2" data-name="レイヤー 2"><g id="レイヤー_2-2" data-name="レイヤー 2"><path class="cls-1" d="M227.45,20.3V21a1.88,1.88,0,0,0,1.93,1.88l27.48-.69A1.88,1.88,0,0,0,258.67,20h0a1.88,1.88,0,0,0-1.86-1.6H229.33A1.88,1.88,0,0,0,227.45,20.3Z"/><path class="cls-1" d="M233.67,32.52v.26a2,2,0,0,0,2,2h18a2,2,0,0,0,2-2v-.22a2,2,0,0,0-2-2l-18,0A2,2,0,0,0,233.67,32.52Z"/><rect class="cls-1" x="234.14" y="41.25" width="22.27" height="5.09" rx="2.43" ry="2.43"/><path class="cls-1" d="M232.32,57V71.44a2.81,2.81,0,0,0,2.81,2.81H253.6a2.81,2.81,0,0,0,2.81-2.81V57a2.81,2.81,0,0,0-2.81-2.81H235.13A2.81,2.81,0,0,0,232.32,57Zm15.15,12.86-5-.2a2.81,2.81,0,0,1-2.81-2.81V61.19a2.81,2.81,0,0,1,2.81-2.81l5,.2a2.81,2.81,0,0,1,2.81,2.81v5.68A2.81,2.81,0,0,1,247.47,69.88Z"/><path class="cls-1" d="M241.38,2.11V9.94A2.11,2.11,0,0,0,243.57,12h1.49a2.11,2.11,0,0,0,2-2.11V2.11A2.11,2.11,0,0,0,245.19,0h-1.49A2.11,2.11,0,0,0,241.38,2.11Z"/><path class="cls-1" d="M264,14.77v1a2.61,2.61,0,0,0,2.65,2.61L287.28,18a2.61,2.61,0,0,1,2.65,2.75l-.35,6.33a2.61,2.61,0,0,1-2.45,2.46l-20.7,1.22a2.61,2.61,0,0,0-2.45,2.6V71a2.61,2.61,0,0,0,2.61,2.61h37.92a2.61,2.61,0,0,0,2.61-2.54l.42-17.19a2.61,2.61,0,0,0-2.61-2.67l-2.18,0a2.61,2.61,0,0,0-2.6,2.49L299.55,66a2.61,2.61,0,0,1-2.6,2.49l-21.82,0a2.61,2.61,0,0,1-2.61-2.65L273,38.9a2.61,2.61,0,0,1,2.42-2.55L294.36,35a2.61,2.61,0,0,0,2.42-2.58l.16-19.09a2.61,2.61,0,0,0-2.76-2.62l-27.75,1.49A2.61,2.61,0,0,0,264,14.77Z"/><path class="cls-1" d="M316.46,20.93V50.6a1.61,1.61,0,0,0,1.61,1.61h4.11a1.61,1.61,0,0,0,1.61-1.61V24a1.61,1.61,0,0,1,1.59-1.61h0A1.61,1.61,0,0,1,327,24V75.34A1.61,1.61,0,0,0,328.69,77l4.15-.19a1.61,1.61,0,0,0,1.54-1.61V23.45a1.61,1.61,0,0,1,1.57-1.61h.14a1.61,1.61,0,0,1,1.65,1.63l-.37,25.34A1.61,1.61,0,0,0,339,50.45l5.48-.21a1.61,1.61,0,0,0,1.55-1.61v-30a1.61,1.61,0,0,0-1.61-1.61h-8.59a1.61,1.61,0,0,1-1.61-1.57L334,3.13a1.61,1.61,0,0,0-1.61-1.57h-3.59a1.61,1.61,0,0,0-1.61,1.61V15.64A1.61,1.61,0,0,1,326,17.2l-8.31,2.18A1.61,1.61,0,0,0,316.46,20.93Z"/><path class="cls-1" d="M353.44,7.49V35.27a1.17,1.17,0,0,1-1.1,1.17l-3.65.21a1.17,1.17,0,0,0-1.1,1.17v1.8a1.17,1.17,0,0,0,1.17,1.17h2.63a1.17,1.17,0,0,1,1.17,1.2l-1,32.41a1.17,1.17,0,0,0,1.17,1.2h4.67a1.17,1.17,0,0,0,.91-.44l11.17-13.89a1.17,1.17,0,0,0-.11-1.58h0a1.17,1.17,0,0,0-1.46-.12l-7.2,4.88a1.17,1.17,0,0,1-1.82-1V45a1.17,1.17,0,0,1,2.08-.73l22.71,28.45a1.17,1.17,0,0,0,.95.44l11.69-.37a1.17,1.17,0,0,0,.68-2.09L373.64,52.51a1.17,1.17,0,0,1,0-1.82l8.77-7.24a1.17,1.17,0,0,0-.15-1.91l-3.16-1.85a1.17,1.17,0,0,0-1.44.21l-6.89,7.39a1.17,1.17,0,0,1-1.72,0l-4.2-4.64a1.17,1.17,0,0,1,.69-1.94l25.9-3.85a1.17,1.17,0,0,0,1-1.15V35a1.17,1.17,0,0,0-1.29-1.16l-27,2.79a1.17,1.17,0,0,1-1.29-1.14l-.08-4.92a1.17,1.17,0,0,1,1.14-1.19l14.35-.3a1.17,1.17,0,0,0,1.13-1.31l-.14-1.12a1.17,1.17,0,0,0-1.18-1l-14.45.27a1.17,1.17,0,0,1-1.19-1.16V19.81a1.17,1.17,0,0,1,1.1-1.17l13.37-.76a1.17,1.17,0,0,0,1.1-1.19l0-1.42a1.17,1.17,0,0,0-1.2-1.14l-13.35.43a1.17,1.17,0,0,1-1.2-1.1L362,9.61a1.17,1.17,0,0,1,1.15-1.23l13.19-.12A1.17,1.17,0,0,0,377.47,7l-.21-2.39a1.17,1.17,0,0,0-1.31-1.06L354.45,6.34A1.17,1.17,0,0,0,353.44,7.49Z"/><path class="cls-1" d="M166.58,15.76l-.8,54.36a4.31,4.31,0,0,0,4.31,4.37H209.8a4.31,4.31,0,0,0,4.31-4.26l.56-53.34a4.31,4.31,0,0,0-4.2-4.35l-39.47-1A4.31,4.31,0,0,0,166.58,15.76Zm36.5,53-25.13,0a4.31,4.31,0,0,1-4.77-4.41l.51-16.72A4.31,4.31,0,0,1,178,43.46h24.62a4.31,4.31,0,0,1,4.31,4.31V64.51A4.31,4.31,0,0,1,203.08,68.79Zm-.33-29.57-24.48.66a4.31,4.31,0,0,1-4.44-4.32l0-15a4.31,4.31,0,0,1,4.31-4.3h24.45a4.31,4.31,0,0,1,4.31,4.31V34.91A4.31,4.31,0,0,1,202.75,39.22Z"/><path class="cls-1" d="M29.92,9.71,29.64,64.6A5.61,5.61,0,0,1,24,70.18H19.09a5.61,5.61,0,0,1-5.61-5.61V45.24a5.61,5.61,0,0,0-5.61-5.61H5.61A5.61,5.61,0,0,0,0,45.24V68.89a5.61,5.61,0,0,0,5.7,5.61l65.58-1.12a5.61,5.61,0,0,0,5.51-5.61V40.66A5.61,5.61,0,0,0,71,35.05h0a5.61,5.61,0,0,0-5.46,5.32L64.5,61.57A5.61,5.61,0,0,1,59,66.89l-10.68.27a5.61,5.61,0,0,1-5.75-5.58l-.2-51.86a5.61,5.61,0,0,0-5.61-5.59H35.52A5.61,5.61,0,0,0,29.92,9.71Z"/><path class="cls-1" d="M93.09,35.2v32a3.2,3.2,0,0,0,3.2,3.2L118.56,70A3.44,3.44,0,0,0,122,66.61l.47-28.46A1.54,1.54,0,0,1,124,36.64l12.27.43a1.54,1.54,0,0,1,1.54,1.54V68a1.54,1.54,0,0,1-1.44,1.54l-7.89.78A1.54,1.54,0,0,0,127,71.79h0a1.54,1.54,0,0,0,1.54,1.63h19.35a1.54,1.54,0,0,0,1.54-1.54V36a4.66,4.66,0,0,0-4.73-4.66l-48.56.73A3.15,3.15,0,0,0,93.09,35.2Zm17.32,31.36-3.49-.21a3.54,3.54,0,0,1-3.54-3.54V44.08a3.8,3.8,0,0,1,3.55-3.79l3.06-.2a3.6,3.6,0,0,1,3.83,3.59V63.15A3.4,3.4,0,0,1,110.41,66.55Z"/></g></g></svg>