<?xml version="1.0" encoding="utf-8"?>
<!-- Generator: Adobe Illustrator 21.1.0, SVG Export Plug-In . SVG Version: 6.00 Build 0)  -->
<svg version="1.1" id="レイヤー_1" xmlns="http://www.w3.org/2000/svg" xmlns:xlink="http://www.w3.org/1999/xlink" x="0px"
	 y="0px" viewBox="0 0 536.8 104" style="enable-background:new 0 0 536.8 104;" xml:space="preserve">
<style type="text/css">
	.st0{fill:#009233;}
</style>
<title>アセット 1</title>
<g id="レイヤー_2">
	<g id="レイヤー_2-2">
		<path class="st0" d="M307.2,27.4v0.9c0,1.4,1.2,2.5,2.6,2.5c0,0,0,0,0,0l37.1-0.9c1.4,0,2.5-1.2,2.5-2.6c0-0.1,0-0.2,0-0.4l0,0
			c-0.2-1.2-1.3-2.2-2.5-2.2h-37.1C308.3,24.9,307.2,26,307.2,27.4C307.2,27.4,307.2,27.4,307.2,27.4z"/>
		<path class="st0" d="M315.6,43.9v0.4c0,1.5,1.2,2.7,2.7,2.7h24.3c1.5,0,2.7-1.2,2.7-2.7V44c0-1.5-1.2-2.7-2.7-2.7h-24.3
			C316.8,41.3,315.6,42.5,315.6,43.9z"/>
		<path class="st0" d="M319.5,55.7H343c1.8,0,3.3,1.5,3.3,3.3v0.3c0,1.8-1.5,3.3-3.3,3.3h-23.5c-1.8,0-3.3-1.5-3.3-3.3V59
			C316.2,57.2,317.7,55.7,319.5,55.7z"/>
		<path class="st0" d="M313.7,77v19.5c0,2.1,1.7,3.8,3.8,3.8h24.9c2.1,0,3.8-1.7,3.8-3.8V77c0-2.1-1.7-3.8-3.8-3.8h-24.9
			C315.4,73.2,313.7,74.9,313.7,77z M334.2,94.4l-6.8-0.3c-2.1,0-3.8-1.7-3.8-3.8v-7.6c0-2.1,1.7-3.8,3.8-3.8l6.8,0.3
			c2.1,0,3.8,1.7,3.8,3.8v7.7C338,92.7,336.3,94.4,334.2,94.4L334.2,94.4z"/>
		<path class="st0" d="M326,2.9v10.6c0,1.6,1.3,2.9,2.9,2.9c0,0,0.1,0,0.1,0h2c1.5-0.1,2.7-1.3,2.7-2.8V2.9c0-1.5-1.1-2.7-2.5-2.8
			h-2c-1.6-0.1-3,1-3.1,2.6C326,2.7,326,2.8,326,2.9z"/>
		<path class="st0" d="M356.5,20v1.4c0,1.9,1.6,3.5,3.5,3.5c0,0,0,0,0.1,0l27.9-0.5c2,0,3.6,1.5,3.6,3.5c0,0.1,0,0.2,0,0.2l-0.5,8.5
			c-0.1,1.8-1.5,3.2-3.3,3.3l-28,1.6c-1.9,0.1-3.3,1.7-3.3,3.6v50.8c0,1.9,1.6,3.5,3.5,3.5h51.2c1.9,0,3.5-1.5,3.5-3.4l0.6-23.2
			c0-1.9-1.5-3.6-3.4-3.6c0,0-0.1,0-0.1,0h-2.9c-1.9,0-3.4,1.5-3.5,3.4l-0.8,16.6c-0.1,1.9-1.6,3.4-3.5,3.3h-29.5
			c-1.9,0-3.5-1.6-3.5-3.5c0,0,0,0,0-0.1l0.6-36.4c0-1.8,1.5-3.3,3.3-3.5l25.6-1.8c1.8-0.1,3.2-1.6,3.3-3.5L401,18
			c0-1.9-1.5-3.5-3.5-3.6c-0.1,0-0.1,0-0.2,0l-37.5,2C358,16.6,356.5,18.1,356.5,20z"/>
		<path class="st0" d="M427.4,28.3v40.1c0,1.2,1,2.2,2.2,2.2h5.6c1.2,0,2.2-1,2.2-2.2V32.4c0-1.2,1-2.2,2.1-2.2l0,0
			c1.2,0,2.2,1,2.2,2.2c0,0,0,0,0,0v69.3c0,1.2,0.9,2.2,2.1,2.2c0.1,0,0.1,0,0.2,0l5.6-0.3c1.2-0.1,2.1-1,2.1-2.2V31.7
			c0-1.2,0.9-2.1,2.1-2.2h0.2c1.2,0,2.2,0.9,2.2,2.1c0,0,0,0.1,0,0.1L455.6,66c0,1.2,1,2.2,2.2,2.2c0,0,0,0,0,0l7.4-0.3
			c1.2-0.1,2.1-1,2.1-2.2V25.2c0-1.2-1-2.2-2.2-2.2h-11.6c-1.2,0-2.2-0.9-2.2-2.1L451,4.2c0-1.2-1-2.1-2.2-2.1H444
			c-1.2,0-2.2,1-2.2,2.2v16.8c0,1-0.7,1.9-1.6,2.1L429,26.2C428,26.4,427.4,27.3,427.4,28.3z"/>
		<path class="st0" d="M477.3,10.1v37.5c0,0.8-0.7,1.5-1.5,1.6l-4.9,0.3c-0.8,0.1-1.5,0.7-1.5,1.6v2.4c0,0.9,0.7,1.6,1.6,1.6h3.6
			c0.9,0,1.6,0.7,1.6,1.6c0,0,0,0,0,0.1l-1.4,43.8c0,0.9,0.7,1.6,1.5,1.6c0,0,0,0,0,0h6.3c0.5,0,0.9-0.2,1.2-0.6L499,82.8
			c0.5-0.6,0.4-1.6-0.1-2.1l0,0c-0.5-0.5-1.3-0.6-2-0.2l-9.7,6.6c-0.7,0.5-1.7,0.3-2.2-0.4c-0.2-0.3-0.3-0.6-0.3-1V60.8
			c0-0.9,0.7-1.6,1.6-1.6c0.5,0,0.9,0.2,1.2,0.6l30.7,38.4c0.3,0.4,0.8,0.6,1.4,0.6l15.8-0.5c0.9,0,1.6-0.8,1.5-1.6
			c0-0.5-0.2-0.9-0.6-1.2l-31.6-24.6c-0.7-0.5-0.8-1.5-0.3-2.2c0.1-0.1,0.2-0.2,0.3-0.3l11.8-9.8c0.7-0.6,0.8-1.6,0.2-2.2
			c-0.1-0.1-0.3-0.3-0.4-0.4l-4.3-2.5c-0.6-0.4-1.4-0.2-1.9,0.3l-9.3,10c-0.6,0.6-1.6,0.7-2.2,0.1c0,0-0.1-0.1-0.1-0.1l-5.7-6.3
			c-0.6-0.6-0.5-1.6,0.1-2.2c0.2-0.2,0.5-0.3,0.8-0.4l35-5.2c0.8-0.1,1.4-0.8,1.4-1.6v-1c0-0.9-0.7-1.6-1.6-1.6c0,0-0.1,0-0.1,0
			l-36.5,3.8c-0.9,0.1-1.6-0.5-1.7-1.4c0,0,0-0.1,0-0.1l-0.1-6.6c0-0.9,0.7-1.6,1.6-1.6c0,0,0,0,0,0l19.4-0.4c0.9,0,1.6-0.7,1.5-1.6
			c0,0,0-0.1,0-0.1l-0.2-1.5c-0.1-0.8-0.8-1.4-1.6-1.4L491.1,35c-0.9,0-1.6-0.7-1.6-1.6c0,0,0,0,0,0v-6.7c0-0.8,0.7-1.5,1.5-1.6
			l18.1-1c0.8-0.1,1.5-0.8,1.5-1.6v-1.9c0-0.9-0.7-1.6-1.6-1.5c0,0,0,0,0,0l-18,0.6c-0.9,0-1.6-0.6-1.6-1.5l-0.4-5.2
			c0-0.9,0.6-1.6,1.5-1.7c0,0,0,0,0.1,0l17.8-0.2c0.9,0,1.6-0.8,1.5-1.6c0,0,0,0,0-0.1l-0.3-3.2c-0.1-0.9-0.9-1.5-1.7-1.4
			c0,0,0,0,0,0l-29,3.8C477.9,8.8,477.3,9.4,477.3,10.1z"/>
		<path class="st0" d="M225,21.3l-1.1,73.4c-0.1,3.2,2.5,5.8,5.7,5.9c0,0,0.1,0,0.1,0h53.6c3.2,0,5.8-2.6,5.8-5.8l0.8-72
			c0-3.2-2.5-5.8-5.7-5.9l-53.3-1.4C227.7,15.5,225,18,225,21.3C225,21.2,225,21.3,225,21.3z M274.2,92.9h-33.9
			c-3.2,0.4-6.1-1.9-6.4-5.1c0-0.3,0-0.5,0-0.8l0.7-22.6c0.1-3.1,2.7-5.6,5.8-5.6h33.2c3.2,0,5.8,2.6,5.8,5.8c0,0,0,0,0,0v22.6
			C279.4,90.1,277.2,92.6,274.2,92.9L274.2,92.9z M273.8,52.9l-33.1,0.9c-3.2,0.1-5.9-2.4-6-5.6c0-0.1,0-0.1,0-0.2V27.7
			c0-3.2,2.6-5.8,5.8-5.8l0,0h33c3.2,0,5.8,2.6,5.8,5.8c0,0,0,0,0,0v19.4C279.4,50.3,276.9,52.8,273.8,52.9L273.8,52.9z"/>
		<path class="st0" d="M40.4,13.1L40,87.3c0,4.2-3.4,7.6-7.6,7.5c0,0,0,0,0,0h-6.6c-4.2,0-7.6-3.4-7.6-7.6l0,0V61.1
			c0-4.2-3.4-7.6-7.6-7.6h0H7.6c-4.2,0-7.6,3.4-7.6,7.6c0,0,0,0,0,0V93c0,4.2,3.4,7.6,7.6,7.6c0,0,0.1,0,0.1,0l88.6-1.5
			c4.1-0.1,7.4-3.4,7.4-7.6V54.9c0-4.2-3.4-7.6-7.6-7.6c-0.1,0-0.2,0-0.2,0l0,0c-4,0.1-7.2,3.2-7.4,7.2l-1.4,28.6
			c-0.2,4-3.4,7.1-7.4,7.2l-14.4,0.4c-4.2,0.1-7.7-3.2-7.8-7.4c0-0.1,0-0.1,0-0.2l-0.3-70c0-4.2-3.4-7.5-7.6-7.5H48
			C43.8,5.6,40.4,9,40.4,13.1z"/>
		<path class="st0" d="M125.7,47.5v43.2c0,2.4,1.9,4.3,4.3,4.3l30.1-0.5c2.5,0,4.6-2,4.6-4.6l0.6-38.4c0-1.1,0.9-2,2.1-2l16.6,0.6
			c1.1,0,2.1,0.9,2.1,2.1v39.7c0,1.1-0.9,2-1.9,2.1L173.5,95c-1.1,0.1-1.9,0.9-1.9,2l0,0c-0.1,1.1,0.8,2.1,2,2.2c0,0,0.1,0,0.1,0
			h26.1c1.1,0,2.1-0.9,2.1-2.1V48.6c0-3.5-2.8-6.3-6.3-6.3c0,0-0.1,0-0.1,0l-65.6,1C127.6,43.4,125.7,45.2,125.7,47.5z M149.1,89.9
			l-4.7-0.3c-2.6,0-4.8-2.1-4.8-4.8V59.5c0-2.7,2.1-4.9,4.8-5.1l4.1-0.3c2.7-0.2,5,1.9,5.2,4.5c0,0.1,0,0.2,0,0.3v26.3
			C153.7,87.8,151.6,89.9,149.1,89.9z"/>
	</g>
</g>
</svg>
