<svg xmlns="http://www.w3.org/2000/svg" viewBox="0 0 231.45 51.11"><defs><style>.cls-1{fill:#009233;}.cls-2{fill:#595757;}</style></defs><title>mountain2</title><g id="レイヤー_2" data-name="レイヤー 2"><g id="レイヤー_2-2" data-name="レイヤー 2"><path class="cls-1" d="M0,51.1C4.08,46,14.56,39.76,18.49,39.93c5.64.25,6.38,2.63,10.62,2.49,5.8-.2,8.5-6.1,15.63-6,9.39.12,5.37,3.89,13.69,2.91C63,38.77,85,25.86,97.61,25.86c20.41,0,49.73,9.86,53.63,10.74,13,2.93,10-3.54,23.69-2.22,17.58,1.69,16.23,8.86,24.3,8.49,8.84-.41,11.69-4.33,16.61-4.33,4.11,0,9.49,8.67,15.61,12.57"/><path class="cls-2" d="M78.51,3.3l-1.69.56v1h1.29l.72-.4V6.92l-2,.4-2.2,2.13a.74.74,0,0,0-.24.5L74,13.45v.14l.4,5.4,1,.57,1,.32,1.77.48.64.4v4.12a.53.53,0,0,1,0,.13l-.55,3.56,3-.95a.81.81,0,0,0,.57-.77v-6a.8.8,0,0,1,.9-.8l2.88.32a.83.83,0,0,1,.63.42L88,24.1l1.77-1.37-1-4.36a.81.81,0,0,0-.72-.62l-5.08-.46a.8.8,0,0,1-.73-.88l.32-3.48a.8.8,0,0,1,1-.71l2.16.55a.77.77,0,0,0,.71-.16l2.82-2.31-.72-1.53-.81.65-1.85,1-2.33-.32-.64-1.37-.25-1.93-1-.08V5.87L83.1,5l-.24-2.66,1.69-1L83.66.4l-1.45,1L81,0,76.9,1.85Z"/><polygon class="cls-2" points="87.68 24.59 87.68 25.79 93.16 24.59 92.83 23.06 89.78 22.73 88 24.1 87.68 24.59"/><polygon class="cls-2" points="78.27 28.57 77.89 30.61 78.54 31.49 83.49 29.2 83.49 28.57 83.13 27.36 81.81 27.44 78.27 28.57"/><polygon class="cls-2" points="88.49 8.77 88.89 7.37 91.28 7.16 91.92 9.12 91.45 10.57 90.42 10.57 89.21 10.3 88.49 8.77"/><polygon class="cls-2" points="87.68 4.32 96.06 25.79 97.61 25.86 88.98 4.32 87.68 4.32"/></g></g></svg>